<svg width="18" height="31" viewBox="0 0 18 31" fill="none" xmlns="http://www.w3.org/2000/svg">
<path d="M0.618652 30.2875C0.212402 29.8813 0.00927734 29.4002 0.00927734 28.8445C0.00927734 28.2887 0.212402 27.8083 0.618652 27.4031L12.5218 15.5L0.578027 3.55625C0.198861 3.17708 0.00927734 2.70313 0.00927734 2.13438C0.00927734 1.56563 0.212402 1.07812 0.618652 0.671875C1.0249 0.265625 1.5059 0.0625 2.06165 0.0625C2.6174 0.0625 3.09786 0.265625 3.50303 0.671875L17.153 14.3625C17.3155 14.525 17.4309 14.701 17.4992 14.8906C17.5674 15.0802 17.601 15.2833 17.5999 15.5C17.5999 15.7167 17.5658 15.9198 17.4975 16.1094C17.4293 16.299 17.3144 16.475 17.153 16.6375L3.4624 30.3281C3.08323 30.7073 2.61578 30.8969 2.06003 30.8969C1.50428 30.8969 1.02382 30.6938 0.618652 30.2875Z" fill="#DDDDDD"/>
</svg>
