<svg width="19" height="31" viewBox="0 0 19 31" fill="none" xmlns="http://www.w3.org/2000/svg">
<path d="M14.578 30.2874L0.887329 16.6374C0.724829 16.4749 0.609455 16.2989 0.541205 16.1093C0.472955 15.9197 0.439372 15.7166 0.440455 15.4999C0.440455 15.2832 0.474038 15.0801 0.541205 14.8905C0.608371 14.7009 0.723746 14.5249 0.887329 14.3624L14.578 0.671777C14.9571 0.292611 15.4311 0.103027 15.9998 0.103027C16.5686 0.103027 17.0561 0.306152 17.4623 0.712402C17.8686 1.11865 18.0717 1.59261 18.0717 2.13428C18.0717 2.67594 17.8686 3.1499 17.4623 3.55615L5.51858 15.4999L17.4623 27.4437C17.8415 27.8228 18.0311 28.2903 18.0311 28.846C18.0311 29.4018 17.828 29.8822 17.4217 30.2874C17.0155 30.6937 16.5415 30.8968 15.9998 30.8968C15.4582 30.8968 14.9842 30.6937 14.578 30.2874Z" fill="#DDDDDD"/>
</svg>
